<svg width="312" height="61" viewBox="0 0 312 61" fill="none" xmlns="http://www.w3.org/2000/svg">
<path d="M99.245 25.3672H91.468C91.326 24.361 91.036 23.4673 90.598 22.6861C90.16 21.893 89.5978 21.2183 88.9112 20.6619C88.2247 20.1056 87.4316 19.6794 86.532 19.3835C85.6442 19.0876 84.6795 18.9396 83.6378 18.9396C81.7557 18.9396 80.1162 19.4072 78.7195 20.3423C77.3227 21.2656 76.2396 22.6151 75.4702 24.3906C74.7008 26.1544 74.3161 28.2969 74.3161 30.8182C74.3161 33.4105 74.7008 35.5885 75.4702 37.3523C76.2514 39.116 77.3404 40.4477 78.7372 41.3473C80.134 42.2469 81.7498 42.6967 83.5845 42.6967C84.6143 42.6967 85.5672 42.5606 86.4432 42.2884C87.331 42.0161 88.1181 41.6196 88.8047 41.0987C89.4912 40.5661 90.0594 39.9209 90.5092 39.1634C90.9709 38.4058 91.2905 37.5417 91.468 36.571L99.245 36.6065C99.0438 38.2756 98.5407 39.8854 97.7358 41.4361C96.9427 42.9749 95.8714 44.3539 94.522 45.5732C93.1844 46.7805 91.5864 47.7393 89.728 48.4496C87.8814 49.148 85.7921 49.4972 83.4602 49.4972C80.2169 49.4972 77.3168 48.7633 74.7599 47.2955C72.215 45.8277 70.2027 43.7029 68.723 40.9212C67.2552 38.1394 66.5213 34.7718 66.5213 30.8182C66.5213 26.8527 67.267 23.4792 68.7585 20.6974C70.25 17.9157 72.2741 15.7969 74.831 14.3409C77.3878 12.8731 80.2642 12.1392 83.4602 12.1392C85.5672 12.1392 87.5204 12.4351 89.3196 13.027C91.1307 13.6188 92.7346 14.483 94.1314 15.6193C95.5282 16.7438 96.6645 18.1229 97.5405 19.7564C98.4283 21.3899 98.9964 23.2602 99.245 25.3672ZM119.105 37.3878V21.7273H126.669V49H119.407V44.0462H119.123C118.508 45.6442 117.484 46.9285 116.051 47.8991C114.631 48.8698 112.897 49.3551 110.849 49.3551C109.026 49.3551 107.422 48.9408 106.037 48.1122C104.652 47.2836 103.569 46.1058 102.788 44.5788C102.019 43.0518 101.628 41.223 101.616 39.0923V21.7273H109.18V37.7429C109.192 39.3527 109.624 40.6252 110.476 41.5604C111.328 42.4955 112.471 42.9631 113.903 42.9631C114.815 42.9631 115.667 42.7559 116.46 42.3416C117.253 41.9155 117.892 41.2881 118.377 40.4595C118.875 39.6309 119.117 38.607 119.105 37.3878ZM129.72 49V21.7273H137.053V26.4858H137.337C137.834 24.7931 138.669 23.5147 139.84 22.6506C141.012 21.7746 142.362 21.3366 143.889 21.3366C144.267 21.3366 144.676 21.3603 145.114 21.4077C145.552 21.455 145.936 21.5201 146.268 21.603V28.3146C145.913 28.2081 145.422 28.1134 144.794 28.0305C144.167 27.9477 143.593 27.9062 143.072 27.9062C141.959 27.9062 140.965 28.1489 140.089 28.6342C139.225 29.1077 138.538 29.7706 138.029 30.6229C137.532 31.4751 137.284 32.4576 137.284 33.5703V49H129.72ZM158.338 49.5327C155.533 49.5327 153.118 48.9645 151.094 47.8281C149.081 46.6799 147.531 45.0582 146.442 42.9631C145.353 40.8561 144.808 38.3643 144.808 35.4879C144.808 32.6825 145.353 30.2204 146.442 28.1016C147.531 25.9827 149.064 24.3314 151.04 23.1477C153.029 21.964 155.361 21.3722 158.036 21.3722C159.835 21.3722 161.51 21.6622 163.061 22.2422C164.624 22.8104 165.985 23.6686 167.145 24.8168C168.317 25.965 169.228 27.4091 169.879 29.1491C170.53 30.8774 170.856 32.9015 170.856 35.2216V37.299H147.827V32.6115H163.736C163.736 31.5225 163.499 30.5578 163.026 29.7173C162.552 28.8769 161.895 28.2199 161.055 27.7464C160.226 27.2611 159.261 27.0185 158.161 27.0185C157.012 27.0185 155.994 27.2848 155.107 27.8175C154.231 28.3383 153.544 29.0426 153.047 29.9304C152.55 30.8063 152.295 31.7829 152.283 32.8601V37.3168C152.283 38.6662 152.532 39.8321 153.029 40.8146C153.538 41.7971 154.254 42.5547 155.178 43.0874C156.101 43.62 157.196 43.8864 158.462 43.8864C159.303 43.8864 160.072 43.768 160.771 43.5312C161.469 43.2945 162.067 42.9394 162.564 42.4659C163.061 41.9924 163.44 41.4124 163.7 40.7259L170.696 41.1875C170.341 42.8684 169.613 44.3362 168.512 45.5909C167.423 46.8338 166.014 47.8045 164.286 48.5028C162.57 49.1894 160.587 49.5327 158.338 49.5327ZM201.233 23.0945C201.091 21.6622 200.481 20.5495 199.404 19.7564C198.327 18.9633 196.865 18.5668 195.018 18.5668C193.764 18.5668 192.704 18.7443 191.84 19.0994C190.976 19.4427 190.313 19.9221 189.851 20.5376C189.402 21.1532 189.177 21.8516 189.177 22.6328C189.153 23.2839 189.289 23.852 189.585 24.3374C189.893 24.8227 190.313 25.2429 190.846 25.598C191.378 25.9413 191.994 26.2431 192.692 26.5036C193.391 26.7521 194.136 26.9652 194.93 27.1428L198.197 27.924C199.783 28.2791 201.239 28.7526 202.564 29.3445C203.89 29.9363 205.038 30.6643 206.009 31.5284C206.98 32.3925 207.731 33.4105 208.264 34.5824C208.809 35.7543 209.087 37.0978 209.099 38.6129C209.087 40.8383 208.519 42.7678 207.394 44.4013C206.281 46.023 204.671 47.2836 202.564 48.1832C200.469 49.071 197.942 49.5149 194.983 49.5149C192.047 49.5149 189.49 49.0651 187.312 48.1655C185.146 47.2659 183.453 45.9342 182.234 44.1705C181.027 42.3949 180.394 40.1991 180.334 37.5831H187.774C187.857 38.8023 188.206 39.8203 188.822 40.6371C189.449 41.442 190.283 42.0516 191.325 42.4659C192.379 42.8684 193.568 43.0696 194.894 43.0696C196.196 43.0696 197.327 42.8802 198.285 42.5014C199.256 42.1226 200.008 41.5959 200.54 40.9212C201.073 40.2464 201.339 39.4711 201.339 38.5952C201.339 37.7784 201.097 37.0919 200.611 36.5355C200.138 35.9792 199.439 35.5057 198.516 35.1151C197.605 34.7244 196.486 34.3693 195.16 34.0497L191.201 33.0554C188.135 32.3097 185.714 31.1437 183.939 29.5575C182.163 27.9714 181.281 25.8348 181.293 23.1477C181.281 20.946 181.867 19.0225 183.051 17.3771C184.247 15.7318 185.886 14.4474 187.969 13.5241C190.053 12.6009 192.42 12.1392 195.072 12.1392C197.77 12.1392 200.126 12.6009 202.138 13.5241C204.162 14.4474 205.737 15.7318 206.861 17.3771C207.986 19.0225 208.566 20.9283 208.601 23.0945H201.233ZM218.692 33.233V49H211.128V12.6364H218.479V26.5391H218.798C219.414 24.9292 220.408 23.6686 221.781 22.7571C223.154 21.8338 224.877 21.3722 226.948 21.3722C228.842 21.3722 230.493 21.7865 231.902 22.6151C233.322 23.4318 234.423 24.6096 235.205 26.1484C235.998 27.6754 236.388 29.5043 236.376 31.6349V49H228.812V32.9844C228.824 31.3035 228.398 29.9955 227.534 29.0604C226.682 28.1252 225.486 27.6577 223.947 27.6577C222.918 27.6577 222.006 27.8767 221.213 28.3146C220.432 28.7526 219.816 29.3918 219.366 30.2322C218.929 31.0608 218.704 32.0611 218.692 33.233ZM247.106 49.5149C245.366 49.5149 243.815 49.2131 242.454 48.6094C241.093 47.9938 240.016 47.0883 239.222 45.8928C238.441 44.6854 238.051 43.1821 238.051 41.3828C238.051 39.8677 238.329 38.5952 238.885 37.5653C239.441 36.5355 240.199 35.7069 241.158 35.0795C242.117 34.4522 243.206 33.9787 244.425 33.6591C245.656 33.3395 246.946 33.1146 248.296 32.9844C249.882 32.8187 251.16 32.6648 252.131 32.5227C253.102 32.3688 253.806 32.1439 254.244 31.848C254.682 31.5521 254.901 31.1141 254.901 30.5341V30.4276C254.901 29.303 254.546 28.433 253.835 27.8175C253.137 27.2019 252.143 26.8942 250.852 26.8942C249.491 26.8942 248.408 27.196 247.603 27.7997C246.798 28.3916 246.266 29.1373 246.005 30.0369L239.009 29.4688C239.365 27.8116 240.063 26.3793 241.105 25.1719C242.146 23.9527 243.49 23.0175 245.135 22.3665C246.792 21.7036 248.71 21.3722 250.888 21.3722C252.403 21.3722 253.853 21.5497 255.238 21.9048C256.635 22.2599 257.872 22.8104 258.949 23.5561C260.038 24.3018 260.896 25.2607 261.524 26.4325C262.151 27.5926 262.465 28.9834 262.465 30.6051V49H255.291V45.218H255.078C254.64 46.0703 254.054 46.822 253.32 47.473C252.587 48.1122 251.705 48.6153 250.675 48.9822C249.645 49.3374 248.455 49.5149 247.106 49.5149ZM249.272 44.2947C250.385 44.2947 251.367 44.0758 252.22 43.6378C253.072 43.188 253.741 42.5843 254.226 41.8267C254.711 41.0691 254.954 40.2109 254.954 39.2521V36.358C254.717 36.5118 254.392 36.6539 253.977 36.7841C253.575 36.9025 253.119 37.0149 252.61 37.1214C252.101 37.2161 251.592 37.3049 251.083 37.3878C250.574 37.4588 250.113 37.5239 249.698 37.5831C248.811 37.7133 248.035 37.9205 247.372 38.2045C246.709 38.4886 246.195 38.8733 245.828 39.3587C245.461 39.8321 245.277 40.424 245.277 41.1342C245.277 42.1641 245.65 42.9512 246.396 43.4957C247.153 44.0284 248.112 44.2947 249.272 44.2947ZM265.333 49V21.7273H272.666V26.4858H272.95C273.447 24.7931 274.282 23.5147 275.454 22.6506C276.626 21.7746 277.975 21.3366 279.502 21.3366C279.881 21.3366 280.289 21.3603 280.727 21.4077C281.165 21.455 281.55 21.5201 281.881 21.603V28.3146C281.526 28.2081 281.035 28.1134 280.407 28.0305C279.78 27.9477 279.206 27.9062 278.685 27.9062C277.573 27.9062 276.578 28.1489 275.702 28.6342C274.838 29.1077 274.152 29.7706 273.643 30.6229C273.145 31.4751 272.897 32.4576 272.897 33.5703V49H265.333ZM282.792 59.2273V21.7273H290.249V26.3082H290.587C290.918 25.5743 291.397 24.8286 292.025 24.071C292.664 23.3016 293.493 22.6624 294.511 22.1534C295.54 21.6326 296.819 21.3722 298.346 21.3722C300.335 21.3722 302.169 21.893 303.85 22.9347C305.531 23.9645 306.875 25.5211 307.881 27.6044C308.887 29.6759 309.39 32.2741 309.39 35.3991C309.39 38.4413 308.899 41.0099 307.916 43.1051C306.946 45.1884 305.62 46.7687 303.939 47.8459C302.27 48.9112 300.4 49.4439 298.328 49.4439C296.86 49.4439 295.612 49.2012 294.582 48.7159C293.564 48.2306 292.729 47.621 292.078 46.8871C291.427 46.1413 290.93 45.3897 290.587 44.6321H290.356V59.2273H282.792ZM290.196 35.3636C290.196 36.9853 290.421 38.3999 290.871 39.6072C291.321 40.8146 291.972 41.7557 292.824 42.4304C293.676 43.0933 294.712 43.4247 295.931 43.4247C297.162 43.4247 298.204 43.0874 299.056 42.4126C299.908 41.7261 300.554 40.7791 300.991 39.5717C301.441 38.3525 301.666 36.9498 301.666 35.3636C301.666 33.7893 301.447 32.4044 301.009 31.2088C300.571 30.0133 299.926 29.0781 299.074 28.4034C298.222 27.7287 297.174 27.3913 295.931 27.3913C294.7 27.3913 293.658 27.7169 292.806 28.3679C291.966 29.0189 291.321 29.9422 290.871 31.1378C290.421 32.3333 290.196 33.742 290.196 35.3636Z" fill="white"/>
<path d="M53.1666 20.8979V31.6458H43.3066C43.0166 31.6229 42.3883 31.2792 42.2433 31.0271L39.73 26.5125C38.7391 24.725 37.0233 23.7167 35.1866 23.8083C33.35 23.9 31.7791 25.0688 30.9816 26.9708L27.6466 34.9L27.1633 33.7083C25.9791 30.7979 22.5958 28.5979 19.2608 28.5979L4.83331 28.6667V20.8979C4.83331 12.5563 10.0775 7.58334 18.8741 7.58334H39.1258C47.9225 7.58334 53.1666 12.5563 53.1666 20.8979Z" fill="white"/>
<path d="M53.1666 40.0991V35.0803H43.3066C41.6875 35.0803 39.7783 33.9803 39.0291 32.6283L36.5158 28.1137C35.8391 26.8991 34.8725 26.9678 34.3408 28.2283L28.7825 41.5428C28.1783 43.0324 27.1633 43.0324 26.535 41.5428L23.78 34.9428C23.1275 33.3387 21.0975 32.0324 19.285 32.0324L4.83331 32.1012V40.0991C4.83331 48.3033 9.90831 53.2533 18.4391 53.3908C18.705 53.4137 18.995 53.4137 19.2608 53.4137H38.5941C38.9566 53.4137 39.3191 53.4137 39.6575 53.3908C48.14 53.2074 53.1666 48.2803 53.1666 40.0991Z" fill="white"/>
<path d="M4.83501 32.1023V39.6877C4.78668 38.9544 4.76251 38.1752 4.76251 37.3732V32.1023H4.83501Z" fill="white"/>
</svg>
