<svg version="1.1" id="Layer_1" xmlns="http://www.w3.org/2000/svg" xmlns:xlink="http://www.w3.org/1999/xlink" x="0px" y="0px"
	 width="100%" viewBox="0 0 600 174" enable-background="new 0 0 600 174" xml:space="preserve">
<path fill="#FDFCFC" opacity="1.000000" stroke="none" 
	d="
M401.000000,175.000000 
	C267.333344,175.000000 134.166672,175.000000 1.000000,175.000000 
	C1.000000,117.000000 1.000000,59.000000 1.000000,1.000000 
	C201.000000,1.000000 401.000000,1.000000 601.000000,1.000000 
	C601.000000,59.000000 601.000000,117.000000 601.000000,175.000000 
	C534.500000,175.000000 468.000000,175.000000 401.000000,175.000000 
M433.924408,122.500000 
	C433.924408,135.258850 433.924408,148.017700 433.924408,160.803528 
	C437.893219,160.803528 441.154572,160.803528 444.996826,160.803528 
	C444.996826,115.515327 444.996826,70.478523 444.996826,25.343861 
	C446.208984,25.219107 446.849884,25.095652 447.490753,25.095486 
	C472.150146,25.089113 496.812042,24.905100 521.467163,25.231825 
	C527.542786,25.312338 533.797485,26.397968 539.622498,28.165945 
	C557.344543,33.544804 566.121765,48.129562 563.208801,66.299408 
	C560.850830,81.006859 549.598816,92.526779 532.450562,94.753769 
	C518.499146,96.565598 504.228027,95.921425 490.098083,96.347816 
	C488.178009,96.405769 486.254730,96.355804 484.422729,96.355804 
	C484.422729,100.218666 484.422729,103.297867 484.422729,105.784332 
	C499.899475,105.784332 515.097839,106.722984 530.098877,105.408920 
	C538.233093,104.696381 546.617798,101.188339 553.859497,97.111618 
	C569.199219,88.476089 575.950256,74.447212 574.696655,56.934322 
	C573.425598,39.177906 564.609863,26.096909 547.773926,20.146498 
	C538.858887,16.995600 529.002747,15.398263 519.521484,15.169316 
	C492.711609,14.521925 465.875916,14.939057 439.050385,14.952840 
	C437.448059,14.953663 435.845795,15.095203 433.924377,15.186411 
	C433.924377,50.906803 433.924377,86.203400 433.924408,122.500000 
M27.381889,137.499908 
	C27.381889,145.439117 27.381889,153.378326 27.381889,161.288879 
	C31.461128,161.288879 34.835258,161.288879 38.699532,161.288879 
	C38.699532,115.988411 38.699532,71.093925 38.699532,25.546419 
	C76.385414,25.546419 113.574066,25.546419 150.796982,25.546419 
	C150.796982,21.934557 150.796982,18.986485 150.796982,15.852430 
	C109.671364,15.852430 68.777397,15.852430 27.382208,15.852430 
	C27.382208,56.280472 27.382208,96.390182 27.381889,137.499908 
M331.990936,33.455078 
	C328.837799,28.359699 325.697021,23.256594 322.528198,18.170994 
	C319.012054,12.527987 310.767029,12.511751 307.290649,18.170212 
	C278.712097,64.686653 250.145798,111.210617 221.593201,157.742981 
	C220.965546,158.765869 220.544144,159.915298 220.051071,160.954025 
	C227.502213,163.032822 231.692642,160.515594 235.618240,154.087845 
	C260.863373,112.751808 286.609924,71.722015 312.201294,30.597536 
	C312.930115,29.426308 313.764618,28.320847 314.775787,26.857851 
	C316.069122,28.870352 317.067017,30.384823 318.027069,31.922928 
	C330.718658,52.256596 343.376678,72.611343 356.149200,92.894012 
	C357.111176,94.421593 358.735046,96.246872 360.303223,96.527954 
	C363.471863,97.095894 366.813751,96.697266 371.031372,96.697266 
	C357.822266,75.315872 345.086945,54.701401 331.990936,33.455078 
M183.054413,88.500000 
	C183.054413,112.757065 183.054413,137.014130 183.054413,161.419830 
	C186.998337,161.419830 190.257736,161.419830 193.722137,161.419830 
	C193.722137,112.775291 193.722137,64.386887 193.722137,15.906080 
	C190.135849,15.906080 186.865234,15.906080 183.054428,15.906080 
	C183.054428,39.929001 183.054428,63.714500 183.054413,88.500000 
M74.628845,85.234398 
	C72.529633,85.234398 70.430428,85.234398 68.269936,85.234398 
	C68.269936,89.013817 68.269936,92.093994 68.269936,95.426132 
	C85.911743,95.426132 103.268112,95.426132 120.756195,95.426132 
	C120.756195,91.962730 120.756195,88.774956 120.756195,85.234062 
	C105.448372,85.234062 90.524544,85.234062 74.628845,85.234398 
M378.079315,123.311638 
	C374.151001,123.640511 376.540985,125.641350 377.282013,126.843323 
	C383.025970,136.160416 388.869141,145.416336 394.670380,154.698166 
	C399.422150,162.300919 401.200348,163.005646 410.566315,160.733749 
	C404.350616,150.651917 397.816437,140.856827 392.168396,130.574966 
	C389.049957,124.898026 385.409576,121.983910 378.079315,123.311638 
z"/>
<path fill="#ED1A5F" opacity="1.000000" stroke="none" 
	d="
M433.924377,122.000000 
	C433.924377,86.203400 433.924377,50.906803 433.924377,15.186411 
	C435.845795,15.095203 437.448059,14.953663 439.050385,14.952840 
	C465.875916,14.939057 492.711609,14.521925 519.521484,15.169316 
	C529.002747,15.398263 538.858887,16.995600 547.773926,20.146498 
	C564.609863,26.096909 573.425598,39.177906 574.696655,56.934322 
	C575.950256,74.447212 569.199219,88.476089 553.859497,97.111618 
	C546.617798,101.188339 538.233093,104.696381 530.098877,105.408920 
	C515.097839,106.722984 499.899475,105.784332 484.422729,105.784332 
	C484.422729,103.297867 484.422729,100.218666 484.422729,96.355804 
	C486.254730,96.355804 488.178009,96.405769 490.098083,96.347816 
	C504.228027,95.921425 518.499146,96.565598 532.450562,94.753769 
	C549.598816,92.526779 560.850830,81.006859 563.208801,66.299408 
	C566.121765,48.129562 557.344543,33.544804 539.622498,28.165945 
	C533.797485,26.397968 527.542786,25.312338 521.467163,25.231825 
	C496.812042,24.905100 472.150146,25.089113 447.490753,25.095486 
	C446.849884,25.095652 446.208984,25.219107 444.996826,25.343861 
	C444.996826,70.478523 444.996826,115.515327 444.996826,160.803528 
	C441.154572,160.803528 437.893219,160.803528 433.924408,160.803528 
	C433.924408,148.017700 433.924408,135.258850 433.924377,122.000000 
z"/>
<path fill="#EE1E62" opacity="1.000000" stroke="none" 
	d="
M27.382050,136.999908 
	C27.382208,96.390182 27.382208,56.280472 27.382208,15.852430 
	C68.777397,15.852430 109.671364,15.852430 150.796982,15.852430 
	C150.796982,18.986485 150.796982,21.934557 150.796982,25.546419 
	C113.574066,25.546419 76.385414,25.546419 38.699532,25.546419 
	C38.699532,71.093925 38.699532,115.988411 38.699532,161.288879 
	C34.835258,161.288879 31.461128,161.288879 27.381889,161.288879 
	C27.381889,153.378326 27.381889,145.439117 27.382050,136.999908 
z"/>
<path fill="#ED1B5F" opacity="1.000000" stroke="none" 
	d="
M332.171265,33.771004 
	C345.086945,54.701401 357.822266,75.315872 371.031372,96.697266 
	C366.813751,96.697266 363.471863,97.095894 360.303223,96.527954 
	C358.735046,96.246872 357.111176,94.421593 356.149200,92.894012 
	C343.376678,72.611343 330.718658,52.256596 318.027069,31.922928 
	C317.067017,30.384823 316.069122,28.870352 314.775787,26.857851 
	C313.764618,28.320847 312.930115,29.426308 312.201294,30.597536 
	C286.609924,71.722015 260.863373,112.751808 235.618240,154.087845 
	C231.692642,160.515594 227.502213,163.032822 220.051071,160.954025 
	C220.544144,159.915298 220.965546,158.765869 221.593201,157.742981 
	C250.145798,111.210617 278.712097,64.686653 307.290649,18.170212 
	C310.767029,12.511751 319.012054,12.527987 322.528198,18.170994 
	C325.697021,23.256594 328.837799,28.359699 332.171265,33.771004 
z"/>
<path fill="#ED185E" opacity="1.000000" stroke="none" 
	d="
M183.054413,88.000000 
	C183.054428,63.714500 183.054428,39.929001 183.054428,15.906080 
	C186.865234,15.906080 190.135849,15.906080 193.722137,15.906080 
	C193.722137,64.386887 193.722137,112.775291 193.722137,161.419830 
	C190.257736,161.419830 186.998337,161.419830 183.054413,161.419830 
	C183.054413,137.014130 183.054413,112.757065 183.054413,88.000000 
z"/>
<path fill="#EE2668" opacity="1.000000" stroke="none" 
	d="
M75.114777,85.234230 
	C90.524544,85.234062 105.448372,85.234062 120.756195,85.234062 
	C120.756195,88.774956 120.756195,91.962730 120.756195,95.426132 
	C103.268112,95.426132 85.911743,95.426132 68.269936,95.426132 
	C68.269936,92.093994 68.269936,89.013817 68.269936,85.234398 
	C70.430428,85.234398 72.529633,85.234398 75.114777,85.234230 
z"/>
<path fill="#ED1C61" opacity="1.000000" stroke="none" 
	d="
M378.503418,123.310051 
	C385.409576,121.983910 389.049957,124.898026 392.168396,130.574966 
	C397.816437,140.856827 404.350616,150.651917 410.566315,160.733749 
	C401.200348,163.005646 399.422150,162.300919 394.670380,154.698166 
	C388.869141,145.416336 383.025970,136.160416 377.282013,126.843323 
	C376.540985,125.641350 374.151001,123.640511 378.503418,123.310051 
z"/>
</svg>